/* XPM */
static const char *icinga_xpm[] = {
"32 32 5 1",
" 	c None",
".	c #808080",
"+	c #000000",
"@	c #C0C0C0",
"#	c #FFFFFF",
"                                ",
"   .++++++++++++++++++++++++.   ",
"  .+++++++++++++++..+++++++++.  ",
" .+++++++++++++++@##@+++++++++. ",
" +++++++++++++++.####.+++++++++ ",
" +++++++++++++++.####.+++++++++ ",
" ++++++++++++++++####++++++++++ ",
" ++++++++++++++++@@..++++++++++ ",
" +++++..+++++++++#.++++++++++++ ",
" ++++.##@+++++++@#+++++++++++++ ",
" ++++.###+++++++#.+++++++++.+++ ",
" ++++.###@++.@@@#+++++++++@##.+ ",
" +++++++.@#######.+++++++.###@+ ",
" +++++++++########++++..@####.+ ",
" ++++++++.########@@###@...@.++ ",
" ++++++++.#########@..+++++++++ ",
" ++++++++.########@++++++++++++ ",
" ++++++++.########.++++++++++++ ",
" +++++++++########+++++++++++++ ",
" +++++++++.######.+++++++++++++ ",
" +++++++++.#....#.+++++++++++++ ",
" ++++++++.#.++++.#.++++++++++++ ",
" ++++++++@@++++++##.+++++++++++ ",
" ++++@##@#+++++++##@+++++++++++ ",
" +++@####@+++++++..++++++++++++ ",
" +++######.++++++++++++++++++++ ",
" +++######.++++++++++++++++++++ ",
" +++######+++++++++++++++++++++ ",
" .++.####.++++++++++++++++++++. ",
"  .+++..+++++++++++++++++++++.  ",
"   .++++++++++++++++++++++++.   ",
"                                "};
